<?xml version="1.0" encoding="UTF-8" standalone="no"?>
<!DOCTYPE svg PUBLIC "-//W3C//DTD SVG 1.1//EN"
 "http://www.w3.org/Graphics/SVG/1.1/DTD/svg11.dtd">
<!-- Generated by graphviz version 2.43.0 (0)
 -->
<!-- Title: foo Pages: 1 -->
<svg width="662pt" height="1267pt"
 viewBox="0.00 0.00 661.78 1266.80" xmlns="http://www.w3.org/2000/svg" xmlns:xlink="http://www.w3.org/1999/xlink">
<g id="graph0" class="graph" transform="scale(1 1) rotate(0) translate(4 1262.8)">
<title>foo</title>
<polygon fill="white" stroke="transparent" points="-4,4 -4,-1262.8 657.78,-1262.8 657.78,4 -4,4"/>
<g id="clust1" class="cluster">
<title>cluster_source_code</title>
<polygon fill="none" stroke="black" points="8,-962 8,-1250.8 250,-1250.8 250,-962 8,-962"/>
<text text-anchor="middle" x="129" y="-1235.6" font-family="Times,serif" font-size="14.00">Исходный код</text>
</g>
<g id="clust2" class="cluster">
<title>cluster_original</title>
<polygon fill="none" stroke="black" points="258,-8 258,-1157.9 638,-1157.9 638,-8 258,-8"/>
<text text-anchor="middle" x="448" y="-1142.7" font-family="Times,serif" font-size="14.00">Граф потока управления</text>
</g>
<!-- src -->
<g id="node1" class="node">
<title>src</title>
<polygon fill="none" stroke="black" points="242,-1219.7 16,-1219.7 16,-970.1 242,-970.1 242,-1219.7"/>
<text text-anchor="start" x="24" y="-1204.6" font-family="Times,serif" font-size="14.00">func foo() &#45;&gt; int {</text>
<text text-anchor="start" x="24" y="-1189.6" font-family="Times,serif" font-size="14.00"> &#160;&#160;&#160;let a int = 0;</text>
<text text-anchor="start" x="24" y="-1174.6" font-family="Times,serif" font-size="14.00"> &#160;&#160;&#160;for (let i int = 0; i &lt; 10; i = i + 1) {</text>
<text text-anchor="start" x="24" y="-1159.6" font-family="Times,serif" font-size="14.00"> &#160;&#160;&#160;&#160;&#160;&#160;&#160;a = input();</text>
<text text-anchor="start" x="24" y="-1144.6" font-family="Times,serif" font-size="14.00"> &#160;&#160;&#160;&#160;&#160;&#160;&#160;if (a &gt;= 10) {</text>
<text text-anchor="start" x="24" y="-1129.6" font-family="Times,serif" font-size="14.00"> &#160;&#160;&#160;&#160;&#160;&#160;&#160;&#160;&#160;&#160;&#160;a = 10;</text>
<text text-anchor="start" x="24" y="-1114.6" font-family="Times,serif" font-size="14.00"> &#160;&#160;&#160;&#160;&#160;&#160;&#160;&#160;&#160;&#160;&#160;break;</text>
<text text-anchor="start" x="24" y="-1099.6" font-family="Times,serif" font-size="14.00"> &#160;&#160;&#160;&#160;&#160;&#160;&#160;}</text>
<text text-anchor="start" x="24" y="-1084.6" font-family="Times,serif" font-size="14.00"> &#160;&#160;&#160;}</text>
<text text-anchor="start" x="24" y="-1069.6" font-family="Times,serif" font-size="14.00"> &#160;&#160;&#160;return a;</text>
<text text-anchor="start" x="24" y="-1054.6" font-family="Times,serif" font-size="14.00">}</text>
<text text-anchor="start" x="24" y="-1022.8" font-family="Times,serif" font-size="14.00">func input() &#45;&gt; int {</text>
<text text-anchor="start" x="24" y="-1007.8" font-family="Times,serif" font-size="14.00"> &#160;&#160;&#160;// внешняя функция</text>
<text text-anchor="start" x="24" y="-992.8" font-family="Times,serif" font-size="14.00"> &#160;&#160;&#160;return 42;</text>
<text text-anchor="start" x="24" y="-977.8" font-family="Times,serif" font-size="14.00">}</text>
</g>
<!-- BB0 -->
<g id="node2" class="node">
<title>BB0</title>
<polygon fill="none" stroke="black" points="481,-1126.9 387,-1126.9 387,-1062.9 481,-1062.9 481,-1126.9"/>
<text text-anchor="start" x="395" y="-1112.7" font-family="Times,serif" font-size="14.00" fill="grey">; pred: []</text>
<text text-anchor="start" x="395" y="-1098.7" font-family="Times,serif" font-weight="bold" font-size="14.00" fill="#22addb">BB0</text>
<text text-anchor="start" x="420" y="-1098.7" font-family="Times,serif" font-size="14.00">: </text>
<text text-anchor="start" x="428" y="-1098.7" font-family="Times,serif" font-size="14.00" fill="grey">; [entry]</text>
<text text-anchor="start" x="395" y="-1084.7" font-family="Times,serif" font-size="14.00"> &#160;&#160;&#160;jmp </text>
<text text-anchor="start" x="436" y="-1084.7" font-family="Times,serif" font-weight="bold" font-size="14.00" fill="#166046">BB2</text>
<text text-anchor="start" x="395" y="-1070.7" font-family="Times,serif" font-size="14.00" fill="grey">; succ: [&#39;</text>
<text text-anchor="start" x="441" y="-1070.7" font-family="Times,serif" font-weight="bold" font-size="14.00" fill="#166046">BB2</text>
<text text-anchor="start" x="466" y="-1070.7" font-family="Times,serif" font-size="14.00" fill="grey">&#39;]</text>
</g>
<!-- BB2 -->
<g id="node3" class="node">
<title>BB2</title>
<polygon fill="none" stroke="black" points="510,-934 358,-934 358,-870 510,-870 510,-934"/>
<text text-anchor="start" x="366" y="-919.8" font-family="Times,serif" font-size="14.00" fill="grey">; pred: [&#39;</text>
<text text-anchor="start" x="412" y="-919.8" font-family="Times,serif" font-weight="bold" font-size="14.00" fill="#22addb">BB0</text>
<text text-anchor="start" x="437" y="-919.8" font-family="Times,serif" font-size="14.00" fill="grey">&#39;]</text>
<text text-anchor="start" x="366" y="-905.8" font-family="Times,serif" font-weight="bold" font-size="14.00" fill="#166046">BB2</text>
<text text-anchor="start" x="391" y="-905.8" font-family="Times,serif" font-size="14.00">: </text>
<text text-anchor="start" x="399" y="-905.8" font-family="Times,serif" font-size="14.00" fill="grey">; [condition check]</text>
<text text-anchor="start" x="366" y="-891.8" font-family="Times,serif" font-size="14.00"> &#160;&#160;&#160;jmp </text>
<text text-anchor="start" x="407" y="-891.8" font-family="Times,serif" font-weight="bold" font-size="14.00" fill="#8f8544">BB3</text>
<text text-anchor="start" x="366" y="-877.8" font-family="Times,serif" font-size="14.00" fill="grey">; succ: [&#39;</text>
<text text-anchor="start" x="412" y="-877.8" font-family="Times,serif" font-weight="bold" font-size="14.00" fill="#8f8544">BB3</text>
<text text-anchor="start" x="437" y="-877.8" font-family="Times,serif" font-size="14.00" fill="grey">&#39;]</text>
</g>
<!-- BB0&#45;&gt;BB2 -->
<g id="edge1" class="edge">
<title>BB0:s&#45;&gt;BB2:n</title>
<path fill="none" stroke="#166046" stroke-width="3" d="M434,-1061.9C434,-1035.25 434,-1017.98 434,-1001.28"/>
<path fill="none" stroke="#22addb" stroke-width="3" d="M434,-1001.28C434,-984.59 434,-968.48 434,-944.18"/>
<polygon fill="#22addb" stroke="#22addb" stroke-width="3" points="437.5,-944 434,-934 430.5,-944 437.5,-944"/>
</g>
<!-- BB3 -->
<g id="node4" class="node">
<title>BB3</title>
<polygon fill="none" stroke="black" points="507.5,-834 360.5,-834 360.5,-770 507.5,-770 507.5,-834"/>
<text text-anchor="start" x="368.5" y="-819.8" font-family="Times,serif" font-size="14.00" fill="grey">; pred: [&#39;</text>
<text text-anchor="start" x="414.5" y="-819.8" font-family="Times,serif" font-weight="bold" font-size="14.00" fill="#166046">BB2</text>
<text text-anchor="start" x="439.5" y="-819.8" font-family="Times,serif" font-size="14.00" fill="grey">&#39;]</text>
<text text-anchor="start" x="368.5" y="-805.8" font-family="Times,serif" font-weight="bold" font-size="14.00" fill="#8f8544">BB3</text>
<text text-anchor="start" x="393.5" y="-805.8" font-family="Times,serif" font-size="14.00">: </text>
<text text-anchor="start" x="401.5" y="-805.8" font-family="Times,serif" font-size="14.00" fill="grey">; [loop preheader]</text>
<text text-anchor="start" x="368.5" y="-791.8" font-family="Times,serif" font-size="14.00"> &#160;&#160;&#160;jmp </text>
<text text-anchor="start" x="409.5" y="-791.8" font-family="Times,serif" font-weight="bold" font-size="14.00" fill="#ef0439">BB4</text>
<text text-anchor="start" x="368.5" y="-777.8" font-family="Times,serif" font-size="14.00" fill="grey">; succ: [&#39;</text>
<text text-anchor="start" x="414.5" y="-777.8" font-family="Times,serif" font-weight="bold" font-size="14.00" fill="#ef0439">BB4</text>
<text text-anchor="start" x="439.5" y="-777.8" font-family="Times,serif" font-size="14.00" fill="grey">&#39;]</text>
</g>
<!-- BB2&#45;&gt;BB3 -->
<g id="edge2" class="edge">
<title>BB2:s&#45;&gt;BB3:n</title>
<path fill="none" stroke="#8f8544" stroke-width="3" d="M434,-870C434,-864 434,-859.69 434,-855.8"/>
<path fill="none" stroke="#166046" stroke-width="3" d="M434,-855.8C434,-851.91 434,-848.44 434,-844.12"/>
<polygon fill="#166046" stroke="#166046" stroke-width="3" points="437.5,-844 434,-834 430.5,-844 437.5,-844"/>
</g>
<!-- BB4 -->
<g id="node5" class="node">
<title>BB4</title>
<polygon fill="none" stroke="black" points="560,-734 308,-734 308,-600 560,-600 560,-734"/>
<text text-anchor="start" x="316" y="-719.8" font-family="Times,serif" font-size="14.00" fill="grey">; pred: [&#39;</text>
<text text-anchor="start" x="362" y="-719.8" font-family="Times,serif" font-weight="bold" font-size="14.00" fill="#8f8544">BB3</text>
<text text-anchor="start" x="387" y="-719.8" font-family="Times,serif" font-size="14.00" fill="grey">&#39;, &#39;</text>
<text text-anchor="start" x="400" y="-719.8" font-family="Times,serif" font-weight="bold" font-size="14.00" fill="#c1f8ab">BB5</text>
<text text-anchor="start" x="425" y="-719.8" font-family="Times,serif" font-size="14.00" fill="grey">&#39;]</text>
<text text-anchor="start" x="316" y="-705.8" font-family="Times,serif" font-weight="bold" font-size="14.00" fill="#ef0439">BB4</text>
<text text-anchor="start" x="341" y="-705.8" font-family="Times,serif" font-size="14.00">: </text>
<text text-anchor="start" x="349" y="-705.8" font-family="Times,serif" font-size="14.00" fill="grey">; [loop body]</text>
<text text-anchor="start" x="316" y="-691.8" font-family="Times,serif" font-size="14.00"> &#160;&#160;&#160;i_v2 = ϕ(</text>
<text text-anchor="start" x="383" y="-691.8" font-family="Times,serif" font-weight="bold" font-size="14.00" fill="#8f8544">BB3</text>
<text text-anchor="start" x="408" y="-691.8" font-family="Times,serif" font-size="14.00">: 0, </text>
<text text-anchor="start" x="430" y="-691.8" font-family="Times,serif" font-weight="bold" font-size="14.00" fill="#c1f8ab">BB5</text>
<text text-anchor="start" x="455" y="-691.8" font-family="Times,serif" font-size="14.00">: i_v3)</text>
<text text-anchor="start" x="316" y="-663.8" font-family="Times,serif" font-size="14.00"> &#160;&#160;&#160;a_v2 = input()</text>
<text text-anchor="start" x="316" y="-649.8" font-family="Times,serif" font-size="14.00"> &#160;&#160;&#160;%3_v1 = a_v2 &gt;= 10</text>
<text text-anchor="start" x="316" y="-635.8" font-family="Times,serif" font-size="14.00"> &#160;&#160;&#160;cmp(%3_v1, 0)</text>
<text text-anchor="start" x="316" y="-621.8" font-family="Times,serif" font-size="14.00"> &#160;&#160;&#160;if CF == 0 then jmp </text>
<text text-anchor="start" x="447" y="-621.8" font-family="Times,serif" font-weight="bold" font-size="14.00" fill="#3d6a44">BB8</text>
<text text-anchor="start" x="472" y="-621.8" font-family="Times,serif" font-size="14.00"> else jmp </text>
<text text-anchor="start" x="527" y="-621.8" font-family="Times,serif" font-weight="bold" font-size="14.00" fill="#b9c29a">BB9</text>
<text text-anchor="start" x="316" y="-607.8" font-family="Times,serif" font-size="14.00" fill="grey">; succ: [&#39;</text>
<text text-anchor="start" x="362" y="-607.8" font-family="Times,serif" font-weight="bold" font-size="14.00" fill="#3d6a44">BB8</text>
<text text-anchor="start" x="387" y="-607.8" font-family="Times,serif" font-size="14.00" fill="grey">&#39;, &#39;</text>
<text text-anchor="start" x="400" y="-607.8" font-family="Times,serif" font-weight="bold" font-size="14.00" fill="#b9c29a">BB9</text>
<text text-anchor="start" x="425" y="-607.8" font-family="Times,serif" font-size="14.00" fill="grey">&#39;]</text>
</g>
<!-- BB3&#45;&gt;BB4 -->
<g id="edge3" class="edge">
<title>BB3:s&#45;&gt;BB4:n</title>
<path fill="none" stroke="#ef0439" stroke-width="3" d="M434,-770C434,-764 434,-759.69 434,-755.8"/>
<path fill="none" stroke="#8f8544" stroke-width="3" d="M434,-755.8C434,-751.91 434,-748.44 434,-744.12"/>
<polygon fill="#8f8544" stroke="#8f8544" stroke-width="3" points="437.5,-744 434,-734 430.5,-744 437.5,-744"/>
</g>
<!-- BB9 -->
<g id="node6" class="node">
<title>BB9</title>
<polygon fill="none" stroke="black" points="554.5,-564 453.5,-564 453.5,-500 554.5,-500 554.5,-564"/>
<text text-anchor="start" x="461.5" y="-549.8" font-family="Times,serif" font-size="14.00" fill="grey">; pred: [&#39;</text>
<text text-anchor="start" x="507.5" y="-549.8" font-family="Times,serif" font-weight="bold" font-size="14.00" fill="#ef0439">BB4</text>
<text text-anchor="start" x="532.5" y="-549.8" font-family="Times,serif" font-size="14.00" fill="grey">&#39;]</text>
<text text-anchor="start" x="461.5" y="-535.8" font-family="Times,serif" font-weight="bold" font-size="14.00" fill="#b9c29a">BB9</text>
<text text-anchor="start" x="486.5" y="-535.8" font-family="Times,serif" font-size="14.00">: </text>
<text text-anchor="start" x="494.5" y="-535.8" font-family="Times,serif" font-size="14.00" fill="grey">; [merge]</text>
<text text-anchor="start" x="461.5" y="-521.8" font-family="Times,serif" font-size="14.00"> &#160;&#160;&#160;jmp </text>
<text text-anchor="start" x="502.5" y="-521.8" font-family="Times,serif" font-weight="bold" font-size="14.00" fill="#c1f8ab">BB5</text>
<text text-anchor="start" x="461.5" y="-507.8" font-family="Times,serif" font-size="14.00" fill="grey">; succ: [&#39;</text>
<text text-anchor="start" x="507.5" y="-507.8" font-family="Times,serif" font-weight="bold" font-size="14.00" fill="#c1f8ab">BB5</text>
<text text-anchor="start" x="532.5" y="-507.8" font-family="Times,serif" font-size="14.00" fill="grey">&#39;]</text>
</g>
<!-- BB4&#45;&gt;BB9 -->
<g id="edge5" class="edge">
<title>BB4:s&#45;&gt;BB9:n</title>
<path fill="none" stroke="#b9c29a" stroke-width="3" d="M434,-600C434,-584.56 447.64,-582.55 462.88,-582.12"/>
<path fill="none" stroke="#ef0439" stroke-width="3" d="M462.88,-582.12C478.11,-581.68 494.95,-582.83 501.34,-573.68"/>
<polygon fill="#ef0439" stroke="#ef0439" stroke-width="3" points="504.73,-574.57 504,-564 497.98,-572.72 504.73,-574.57"/>
</g>
<!-- BB8 -->
<g id="node11" class="node">
<title>BB8</title>
<polygon fill="none" stroke="black" points="360,-443 266,-443 266,-379 360,-379 360,-443"/>
<text text-anchor="start" x="274" y="-428.8" font-family="Times,serif" font-size="14.00" fill="grey">; pred: [&#39;</text>
<text text-anchor="start" x="320" y="-428.8" font-family="Times,serif" font-weight="bold" font-size="14.00" fill="#ef0439">BB4</text>
<text text-anchor="start" x="345" y="-428.8" font-family="Times,serif" font-size="14.00" fill="grey">&#39;]</text>
<text text-anchor="start" x="274" y="-414.8" font-family="Times,serif" font-weight="bold" font-size="14.00" fill="#3d6a44">BB8</text>
<text text-anchor="start" x="299" y="-414.8" font-family="Times,serif" font-size="14.00">: </text>
<text text-anchor="start" x="307" y="-414.8" font-family="Times,serif" font-size="14.00" fill="grey">; [then]</text>
<text text-anchor="start" x="274" y="-400.8" font-family="Times,serif" font-size="14.00"> &#160;&#160;&#160;jmp </text>
<text text-anchor="start" x="315" y="-400.8" font-family="Times,serif" font-weight="bold" font-size="14.00" fill="#48c90a">BB6</text>
<text text-anchor="start" x="274" y="-386.8" font-family="Times,serif" font-size="14.00" fill="grey">; succ: [&#39;</text>
<text text-anchor="start" x="320" y="-386.8" font-family="Times,serif" font-weight="bold" font-size="14.00" fill="#48c90a">BB6</text>
<text text-anchor="start" x="345" y="-386.8" font-family="Times,serif" font-size="14.00" fill="grey">&#39;]</text>
</g>
<!-- BB4&#45;&gt;BB8 -->
<g id="edge4" class="edge">
<title>BB4:s&#45;&gt;BB8:n</title>
<path fill="none" stroke="#3d6a44" stroke-width="3" d="M434,-600C434,-557.93 406.18,-540.51 377.22,-524.1"/>
<path fill="none" stroke="#ef0439" stroke-width="3" d="M377.22,-524.1C348.26,-507.69 318.16,-492.3 313.59,-454.27"/>
<polygon fill="#ef0439" stroke="#ef0439" stroke-width="3" points="317.07,-453.78 313,-444 310.08,-454.19 317.07,-453.78"/>
</g>
<!-- BB5 -->
<g id="node7" class="node">
<title>BB5</title>
<polygon fill="none" stroke="black" points="630,-464 378,-464 378,-358 630,-358 630,-464"/>
<text text-anchor="start" x="386" y="-449.8" font-family="Times,serif" font-size="14.00" fill="grey">; pred: [&#39;</text>
<text text-anchor="start" x="432" y="-449.8" font-family="Times,serif" font-weight="bold" font-size="14.00" fill="#b9c29a">BB9</text>
<text text-anchor="start" x="457" y="-449.8" font-family="Times,serif" font-size="14.00" fill="grey">&#39;]</text>
<text text-anchor="start" x="386" y="-435.8" font-family="Times,serif" font-weight="bold" font-size="14.00" fill="#c1f8ab">BB5</text>
<text text-anchor="start" x="411" y="-435.8" font-family="Times,serif" font-size="14.00">: </text>
<text text-anchor="start" x="419" y="-435.8" font-family="Times,serif" font-size="14.00" fill="grey">; [loop latch]</text>
<text text-anchor="start" x="386" y="-421.8" font-family="Times,serif" font-size="14.00"> &#160;&#160;&#160;i_v3 = i_v2 + 1</text>
<text text-anchor="start" x="386" y="-407.8" font-family="Times,serif" font-size="14.00"> &#160;&#160;&#160;%8_v1 = i_v3 &lt; 10</text>
<text text-anchor="start" x="386" y="-393.8" font-family="Times,serif" font-size="14.00"> &#160;&#160;&#160;cmp(%8_v1, 0)</text>
<text text-anchor="start" x="386" y="-379.8" font-family="Times,serif" font-size="14.00"> &#160;&#160;&#160;if CF == 0 then jmp </text>
<text text-anchor="start" x="517" y="-379.8" font-family="Times,serif" font-weight="bold" font-size="14.00" fill="#ef0439">BB4</text>
<text text-anchor="start" x="542" y="-379.8" font-family="Times,serif" font-size="14.00"> else jmp </text>
<text text-anchor="start" x="597" y="-379.8" font-family="Times,serif" font-weight="bold" font-size="14.00" fill="#48c90a">BB6</text>
<text text-anchor="start" x="386" y="-365.8" font-family="Times,serif" font-size="14.00" fill="grey">; succ: [&#39;</text>
<text text-anchor="start" x="432" y="-365.8" font-family="Times,serif" font-weight="bold" font-size="14.00" fill="#ef0439">BB4</text>
<text text-anchor="start" x="457" y="-365.8" font-family="Times,serif" font-size="14.00" fill="grey">&#39;, &#39;</text>
<text text-anchor="start" x="470" y="-365.8" font-family="Times,serif" font-weight="bold" font-size="14.00" fill="#48c90a">BB6</text>
<text text-anchor="start" x="495" y="-365.8" font-family="Times,serif" font-size="14.00" fill="grey">&#39;]</text>
</g>
<!-- BB9&#45;&gt;BB5 -->
<g id="edge6" class="edge">
<title>BB9:s&#45;&gt;BB5:n</title>
<path fill="none" stroke="#c1f8ab" stroke-width="3" d="M504,-500C504,-494 504,-489.69 504,-485.8"/>
<path fill="none" stroke="#b9c29a" stroke-width="3" d="M504,-485.8C504,-481.91 504,-478.44 504,-474.12"/>
<polygon fill="#b9c29a" stroke="#b9c29a" stroke-width="3" points="507.5,-474 504,-464 500.5,-474 507.5,-474"/>
</g>
<!-- BB5&#45;&gt;BB4 -->
<g id="edge7" class="edge">
<title>BB5:s&#45;&gt;BB4:n</title>
<path fill="none" stroke="#ef0439" stroke-width="3" d="M504,-357C504,-343 620.14,-348.06 630,-358 663.18,-391.44 659.96,-427.64 630,-464 578.94,-525.96 504.75,-442.84 451.77,-492.74"/>
<path fill="none" stroke="#c1f8ab" stroke-width="3" d="M451.77,-492.74C449.47,-494.9 447.21,-497.32 445,-500 426.91,-521.95 428.16,-541.08 445,-564 476.71,-607.16 528.29,-556.84 560,-600 595.27,-647.99 601.94,-691.72 560,-734 551.8,-742.27 470.02,-747.16 442.78,-740.51"/>
<polygon fill="#c1f8ab" stroke="#c1f8ab" stroke-width="3" points="444.33,-737.35 434,-735 440.61,-743.28 444.33,-737.35"/>
</g>
<!-- BB6 -->
<g id="node8" class="node">
<title>BB6</title>
<polygon fill="none" stroke="black" points="538,-322 334,-322 334,-230 538,-230 538,-322"/>
<text text-anchor="start" x="342" y="-307.8" font-family="Times,serif" font-size="14.00" fill="grey">; pred: [&#39;</text>
<text text-anchor="start" x="388" y="-307.8" font-family="Times,serif" font-weight="bold" font-size="14.00" fill="#3d6a44">BB8</text>
<text text-anchor="start" x="413" y="-307.8" font-family="Times,serif" font-size="14.00" fill="grey">&#39;, &#39;</text>
<text text-anchor="start" x="426" y="-307.8" font-family="Times,serif" font-weight="bold" font-size="14.00" fill="#c1f8ab">BB5</text>
<text text-anchor="start" x="451" y="-307.8" font-family="Times,serif" font-size="14.00" fill="grey">&#39;]</text>
<text text-anchor="start" x="342" y="-293.8" font-family="Times,serif" font-weight="bold" font-size="14.00" fill="#48c90a">BB6</text>
<text text-anchor="start" x="367" y="-293.8" font-family="Times,serif" font-size="14.00">: </text>
<text text-anchor="start" x="375" y="-293.8" font-family="Times,serif" font-size="14.00" fill="grey">; [loop tail]</text>
<text text-anchor="start" x="342" y="-279.8" font-family="Times,serif" font-size="14.00"> &#160;&#160;&#160;a_v3 = ϕ(</text>
<text text-anchor="start" x="412" y="-279.8" font-family="Times,serif" font-weight="bold" font-size="14.00" fill="#3d6a44">BB8</text>
<text text-anchor="start" x="437" y="-279.8" font-family="Times,serif" font-size="14.00">: 10, </text>
<text text-anchor="start" x="466" y="-279.8" font-family="Times,serif" font-weight="bold" font-size="14.00" fill="#c1f8ab">BB5</text>
<text text-anchor="start" x="491" y="-279.8" font-family="Times,serif" font-size="14.00">: a_v2)</text>
<text text-anchor="start" x="342" y="-251.8" font-family="Times,serif" font-size="14.00"> &#160;&#160;&#160;jmp </text>
<text text-anchor="start" x="383" y="-251.8" font-family="Times,serif" font-weight="bold" font-size="14.00" fill="#a6afe3">BB7</text>
<text text-anchor="start" x="342" y="-237.8" font-family="Times,serif" font-size="14.00" fill="grey">; succ: [&#39;</text>
<text text-anchor="start" x="388" y="-237.8" font-family="Times,serif" font-weight="bold" font-size="14.00" fill="#a6afe3">BB7</text>
<text text-anchor="start" x="413" y="-237.8" font-family="Times,serif" font-size="14.00" fill="grey">&#39;]</text>
</g>
<!-- BB5&#45;&gt;BB6 -->
<g id="edge8" class="edge">
<title>BB5:s&#45;&gt;BB6:n</title>
<path fill="none" stroke="#48c90a" stroke-width="3" d="M504,-358C504,-343.04 490.98,-340.82 476.34,-340.2"/>
<path fill="none" stroke="#c1f8ab" stroke-width="3" d="M476.34,-340.2C461.7,-339.58 445.43,-340.55 438.92,-331.96"/>
<polygon fill="#c1f8ab" stroke="#c1f8ab" stroke-width="3" points="442.17,-330.61 436,-322 435.46,-332.58 442.17,-330.61"/>
</g>
<!-- BB7 -->
<g id="node9" class="node">
<title>BB7</title>
<polygon fill="none" stroke="black" points="511,-194 361,-194 361,-102 511,-102 511,-194"/>
<text text-anchor="start" x="369" y="-179.8" font-family="Times,serif" font-size="14.00" fill="grey">; pred: [&#39;</text>
<text text-anchor="start" x="415" y="-179.8" font-family="Times,serif" font-weight="bold" font-size="14.00" fill="#48c90a">BB6</text>
<text text-anchor="start" x="440" y="-179.8" font-family="Times,serif" font-size="14.00" fill="grey">&#39;]</text>
<text text-anchor="start" x="369" y="-165.8" font-family="Times,serif" font-weight="bold" font-size="14.00" fill="#a6afe3">BB7</text>
<text text-anchor="start" x="394" y="-165.8" font-family="Times,serif" font-size="14.00">: </text>
<text text-anchor="start" x="402" y="-165.8" font-family="Times,serif" font-size="14.00" fill="grey">; [loop exit]</text>
<text text-anchor="start" x="369" y="-151.8" font-family="Times,serif" font-size="14.00"> &#160;&#160;&#160;a_v5 = ϕ(</text>
<text text-anchor="start" x="439" y="-151.8" font-family="Times,serif" font-weight="bold" font-size="14.00" fill="#48c90a">BB6</text>
<text text-anchor="start" x="464" y="-151.8" font-family="Times,serif" font-size="14.00">: a_v3)</text>
<text text-anchor="start" x="369" y="-123.8" font-family="Times,serif" font-size="14.00"> &#160;&#160;&#160;return(a_v5)</text>
<text text-anchor="start" x="369" y="-109.8" font-family="Times,serif" font-size="14.00" fill="grey">; succ: [&#39;</text>
<text text-anchor="start" x="415" y="-109.8" font-family="Times,serif" font-weight="bold" font-size="14.00" fill="#fbb509">BB1</text>
<text text-anchor="start" x="440" y="-109.8" font-family="Times,serif" font-size="14.00" fill="grey">&#39;]</text>
</g>
<!-- BB6&#45;&gt;BB7 -->
<g id="edge9" class="edge">
<title>BB6:s&#45;&gt;BB7:n</title>
<path fill="none" stroke="#a6afe3" stroke-width="3" d="M436,-230C436,-224 436,-219.69 436,-215.8"/>
<path fill="none" stroke="#48c90a" stroke-width="3" d="M436,-215.8C436,-211.91 436,-208.44 436,-204.12"/>
<polygon fill="#48c90a" stroke="#48c90a" stroke-width="3" points="439.5,-204 436,-194 432.5,-204 439.5,-204"/>
</g>
<!-- BB1 -->
<g id="node10" class="node">
<title>BB1</title>
<polygon fill="none" stroke="black" points="483,-66 389,-66 389,-16 483,-16 483,-66"/>
<text text-anchor="start" x="397" y="-51.8" font-family="Times,serif" font-size="14.00" fill="grey">; pred: [&#39;</text>
<text text-anchor="start" x="443" y="-51.8" font-family="Times,serif" font-weight="bold" font-size="14.00" fill="#a6afe3">BB7</text>
<text text-anchor="start" x="468" y="-51.8" font-family="Times,serif" font-size="14.00" fill="grey">&#39;]</text>
<text text-anchor="start" x="397" y="-37.8" font-family="Times,serif" font-weight="bold" font-size="14.00" fill="#fbb509">BB1</text>
<text text-anchor="start" x="422" y="-37.8" font-family="Times,serif" font-size="14.00">: </text>
<text text-anchor="start" x="430" y="-37.8" font-family="Times,serif" font-size="14.00" fill="grey">; [exit]</text>
<text text-anchor="start" x="397" y="-23.8" font-family="Times,serif" font-size="14.00" fill="grey">; succ: []</text>
</g>
<!-- BB7&#45;&gt;BB1 -->
<g id="edge10" class="edge">
<title>BB7:s&#45;&gt;BB1:n</title>
<path fill="none" stroke="#fbb509" stroke-width="3" d="M436,-102C436,-96 436,-91.69 436,-87.8"/>
<path fill="none" stroke="#a6afe3" stroke-width="3" d="M436,-87.8C436,-83.91 436,-80.44 436,-76.12"/>
<polygon fill="#a6afe3" stroke="#a6afe3" stroke-width="3" points="439.5,-76 436,-66 432.5,-76 439.5,-76"/>
</g>
<!-- BB8&#45;&gt;BB6 -->
<g id="edge11" class="edge">
<title>BB8:s&#45;&gt;BB6:n</title>
<path fill="none" stroke="#48c90a" stroke-width="3" d="M313,-378C313,-349.9 339.91,-348.98 368.56,-349.81"/>
<path fill="none" stroke="#3d6a44" stroke-width="3" d="M368.56,-349.81C397.21,-350.64 427.59,-353.22 434.53,-332.13"/>
<polygon fill="#3d6a44" stroke="#3d6a44" stroke-width="3" points="438.03,-332.4 436,-322 431.1,-331.4 438.03,-332.4"/>
</g>
</g>
</svg>
